<svg width="162" height="32" fill="none" xmlns="http://www.w3.org/2000/svg"><path d="M.72 31V.92h3.74v13.1h3.86v3.66H4.46V31H.72Zm9.75-13.32v-3.65h3.83V.93h3.78V31H14.3V17.68h-3.83Zm10.96 6.96V14.03c0-1.35.6-2.67 1.8-3.96a7.43 7.43 0 0 1 5.59-2.32v3.48c-1.69 0-2.86.7-3.52 2.11-.2.43-.3.86-.3 1.29v9.45c0 1.06.48 1.96 1.46 2.7.68.52 1.47.78 2.36.78v3.48a7.18 7.18 0 0 1-6.32-3.3 5.68 5.68 0 0 1-1.07-3.1Zm9.24 6.4v-3.48c1.52 0 2.6-.68 3.26-2.06.23-.46.35-.9.35-1.33v-9.54c0-1.18-.5-2.1-1.5-2.8-.64-.4-1.35-.6-2.16-.6V7.75a6.9 6.9 0 0 1 6.1 3.23 5.48 5.48 0 0 1 1.08 3.05v10.61c0 1.4-.6 2.76-1.8 4.08a7.08 7.08 0 0 1-5.33 2.32Zm10.4-6.23V7.8h3.65v16.58c0 1.03.51 1.9 1.55 2.58.68.43 1.44.65 2.27.65v3.6A7.28 7.28 0 0 1 42.18 28a5.64 5.64 0 0 1-1.11-3.18Zm9.36 6.4v-3.6c1.55 0 2.68-.62 3.4-1.85.26-.46.38-.92.38-1.38V7.8h3.66V24.8c0 1.35-.62 2.68-1.85 4a7.51 7.51 0 0 1-5.59 2.4Zm9.93-6.31 3.4-.65c0 1.3.67 2.31 2.01 3.05.66.32 1.3.5 1.9.52v3.4c-2.78 0-4.86-1-6.24-3.01a5.83 5.83 0 0 1-1.07-3.31Zm.21-10.57c0-2.6 1.2-4.54 3.57-5.8 1.15-.6 2.3-.9 3.44-.9v3.35c-1.32 0-2.34.54-3.05 1.63a3 3 0 0 0-.56 1.72c0 .91.71 1.66 2.15 2.23a48.1 48.1 0 0 0 6.31 1.8 5.79 5.79 0 0 1 4.17 2.89c.43.8.65 1.7.65 2.7 0 2.75-1.1 4.79-3.31 6.1a8.43 8.43 0 0 1-4.43 1.16v-3.39c1.32 0 2.42-.46 3.31-1.37.63-.66.95-1.44.95-2.32 0-1.15-1.14-2.07-3.4-2.75-.57-.18-1.49-.42-2.75-.74a36.86 36.86 0 0 1-2.92-.77c-2.18-.86-3.5-2.16-3.95-3.9a7.5 7.5 0 0 1-.18-1.64Zm8.9-3.31v-3.4c2.46 0 4.45.92 5.97 2.75a5.82 5.82 0 0 1 1.42 3.7l-3.4.56c0-1.58-.85-2.68-2.57-3.31-.52-.2-1-.3-1.42-.3Zm10.31 13.62V13.98c.03-1.31.66-2.62 1.9-3.9a7.45 7.45 0 0 1 5.4-2.33v3.4c-1.37 0-2.44.6-3.22 1.8-.31.52-.47 1-.47 1.42v2.92h9.63v-2.92c0-1.29-.66-2.23-1.98-2.83a4.25 4.25 0 0 0-1.85-.43V7.75c1.98 0 3.74.7 5.29 2.1a5.72 5.72 0 0 1 1.97 4.1v6.82H83.4v3.87c0 .8.46 1.55 1.38 2.23.74.52 1.53.78 2.36.78V31a7.1 7.1 0 0 1-6.15-3.18 5.52 5.52 0 0 1-1.2-3.18ZM89.2 31v-3.4c1.72 0 3-.74 3.87-2.23.17-.31.3-.61.39-.9l3.05 1.12a6.9 6.9 0 0 1-3.53 4.46 7.88 7.88 0 0 1-3.78.95ZM98.6.92h3.78l7.65 26.13-1.37 3.95h-1.34L98.6.92Zm10.49 15.94L114.4.92h3.78c-.25.83-1.33 4.16-3.22 9.97l-3.78 11.65h-.43l-1.67-5.68Zm11.17 5.76V8.48c0-1.51.64-3.06 1.93-4.64a8.27 8.27 0 0 1 6.53-3.13v3.74c-1.75 0-3.1.88-4.08 2.66a4.6 4.6 0 0 0-.6 2.06v13.45c0 1.8.89 3.2 2.66 4.21.75.43 1.4.65 1.98.65v3.73a8.36 8.36 0 0 1-4.9-1.76 8.2 8.2 0 0 1-3.52-6.83Zm10.78 8.6v-3.74c1 0 2.02-.45 3.05-1.34a4.7 4.7 0 0 0 1.68-3.52V9.17c0-1.12-.46-2.19-1.38-3.22a4.67 4.67 0 0 0-3.35-1.5V.7c2.9 0 5.22 1.24 6.96 3.74 1 1.43 1.5 2.77 1.5 4.03v14.14c0 3.18-1.41 5.62-4.25 7.3a8.48 8.48 0 0 1-4.2 1.3ZM143 31h3.74V.92h-3.74V31Zm5.88-13.45h4.65c3.75-.03 6.1-1.46 7.04-4.3.38-1.14.56-2.5.56-4.08 0-5.24-2.36-7.99-7.09-8.25h-5.16v3.61h4.04c2.9.06 4.36 1.6 4.39 4.64-.06 3.12-1.5 4.7-4.34 4.73h-4.09v3.65Z" fill="#fff"/></svg>